<?xml version="1.0" encoding="UTF-8"?>
<svg id="Layer_1" data-name="Layer 1" xmlns="http://www.w3.org/2000/svg" viewBox="0 0 51.52 83.71">
  <defs>
    <style>
      .cls-1 {
        fill: #89181a;
      }
    </style>
  </defs>
  <path class="cls-1" d="M50.37,56.79h-8.65v-2.32h7.29c-2.6-14.55-12.21-24.98-23.25-24.98S5.11,39.92,2.52,54.47h7.29v2.32H1.16c-.34,0-.65-.15-.87-.41-.22-.25-.33-.58-.27-.92,1.14-7.81,4.29-14.95,8.86-20.09,4.71-5.29,10.7-8.2,16.88-8.2s12.18,2.91,16.89,8.2c4.57,5.15,7.73,12.28,8.86,20.09.04.33-.05.67-.27.92-.21.26-.53.41-.87.41h0Z"/>
  <path class="cls-1" d="M25.77,24.76c-6.82,0-12.38-5.55-12.38-12.38S18.94,0,25.77,0s12.38,5.55,12.38,12.38-5.55,12.38-12.38,12.38h0ZM25.77,2.32c-5.55,0-10.07,4.51-10.07,10.06s4.52,10.07,10.07,10.07,10.07-4.51,10.07-10.07S31.31,2.32,25.77,2.32h0Z"/>
  <path class="cls-1" d="M17.95,83.71h-.07c-.44-.03-.83-.3-1-.71l-1.99-4.71-5.08.64c-.44.05-.87-.14-1.11-.51-.24-.36-.26-.84-.04-1.22l6.21-10.74c.32-.56,1.02-.75,1.58-.42.56.32.74,1.02.42,1.58l-5.04,8.73,3.63-.45c.52-.07,1.02.22,1.22.7l1.42,3.38,5.42-9.39c.32-.56,1.02-.74,1.58-.42.56.32.74,1.02.42,1.58l-6.58,11.4c-.21.35-.59.57-1.01.57h0Z"/>
  <path class="cls-1" d="M33.59,83.71c-.41,0-.79-.22-1.01-.57l-6.58-11.4c-.32-.56-.13-1.26.42-1.59.56-.32,1.26-.12,1.58.43l5.42,9.38,1.42-3.38c.2-.48.7-.76,1.22-.7l3.63.46-5.03-8.74c-.33-.55-.13-1.25.42-1.58.55-.32,1.25-.12,1.58.42l6.2,10.75c.22.38.21.86-.04,1.22-.25.37-.67.57-1.11.51l-5.07-.64-2,4.71c-.17.41-.56.68-1,.71h-.07Z"/>
  <path class="cls-1" d="M25.77,72.48c-1.21,0-2.38-.38-3.31-1.06-.57-.41-1.15-.57-1.85-.49-1.14.13-2.34-.13-3.4-.74-1.06-.61-1.89-1.52-2.34-2.57-.28-.64-.72-1.08-1.36-1.36-1.05-.46-1.97-1.29-2.57-2.34-.61-1.06-.87-2.26-.74-3.39.08-.71-.08-1.29-.49-1.85-.68-.92-1.06-2.09-1.06-3.31s.38-2.4,1.06-3.31c.41-.57.57-1.15.49-1.85-.13-1.14.13-2.34.74-3.4.61-1.06,1.53-1.89,2.58-2.34.64-.28,1.07-.72,1.35-1.35.45-1.05,1.28-1.97,2.34-2.58,1.06-.61,2.27-.87,3.4-.74.69.08,1.28-.08,1.85-.5h0c.92-.68,2.09-1.05,3.31-1.05s2.4.37,3.32,1.05c.57.42,1.15.58,1.84.5,1.14-.13,2.34.13,3.4.74,1.06.61,1.89,1.52,2.35,2.57.27.64.71,1.08,1.36,1.36,1.03.44,1.95,1.28,2.56,2.34.61,1.05.87,2.26.74,3.4-.08.7.08,1.28.5,1.85.68.91,1.05,2.09,1.05,3.31s-.37,2.39-1.05,3.31c-.42.57-.58,1.16-.5,1.85.13,1.14-.13,2.35-.74,3.4-.61,1.05-1.52,1.88-2.56,2.34-.65.27-1.08.71-1.36,1.35-.46,1.05-1.29,1.97-2.35,2.58-1.05.6-2.26.87-3.39.74-.7-.08-1.29.07-1.85.49-.93.68-2.1,1.06-3.32,1.06h0ZM20.96,68.58c1.04,0,2,.33,2.88.97.53.39,1.22.61,1.93.61s1.41-.22,1.94-.61c1.02-.77,2.2-1.08,3.49-.93.64.07,1.34-.09,1.98-.45.63-.36,1.11-.89,1.38-1.49.51-1.18,1.38-2.05,2.55-2.55.59-.26,1.12-.75,1.48-1.38.37-.63.52-1.32.45-1.98-.15-1.27.17-2.45.94-3.49.39-.52.6-1.21.6-1.93s-.21-1.41-.6-1.93c-.77-1.04-1.09-2.22-.94-3.5.07-.64-.08-1.34-.45-1.97-.36-.64-.88-1.12-1.47-1.38-1.19-.52-2.06-1.38-2.56-2.56-.26-.59-.75-1.12-1.38-1.48-.64-.36-1.34-.52-1.98-.45-1.28.15-2.45-.17-3.5-.94-.51-.39-1.2-.6-1.93-.6s-1.41.21-1.93.6h0c-1.04.77-2.22,1.09-3.5.94-.64-.07-1.34.09-1.98.45-.62.36-1.1.89-1.37,1.49-.51,1.17-1.37,2.03-2.55,2.55-.6.26-1.13.74-1.49,1.37-.36.64-.52,1.34-.45,1.99.15,1.27-.16,2.45-.93,3.49-.39.52-.6,1.21-.6,1.93s.21,1.41.6,1.93c.76,1.04,1.08,2.22.93,3.5-.07.64.09,1.34.45,1.98.35.62.88,1.1,1.49,1.37,1.18.51,2.04,1.37,2.55,2.55.26.6.75,1.13,1.38,1.49.63.36,1.33.52,1.97.45.21-.03.41-.04.62-.04h0ZM23.15,40.22h0Z"/>
  <path class="cls-1" d="M25.77,67.14c-6.5,0-11.78-5.29-11.78-11.78s5.28-11.79,11.78-11.79,11.79,5.29,11.79,11.79-5.29,11.78-11.79,11.78h0ZM25.77,45.88c-5.22,0-9.46,4.25-9.46,9.47s4.25,9.46,9.46,9.46,9.46-4.25,9.46-9.46-4.25-9.47-9.46-9.47h0Z"/>
  <path class="cls-1" d="M24.15,60.23c-.36,0-.71-.17-.92-.46l-2.42-3.18c-.39-.51-.29-1.24.21-1.62.51-.39,1.24-.29,1.62.22l1.5,1.97,4.72-6.22c.39-.51,1.11-.61,1.62-.22.51.39.61,1.11.22,1.62l-5.65,7.43c-.21.3-.56.47-.92.47h0Z"/>
</svg>