<?xml version="1.0" encoding="UTF-8"?>
<svg id="Layer_1" data-name="Layer 1" xmlns="http://www.w3.org/2000/svg" viewBox="0 0 97.33 88.35">
  <defs>
    <style>
      .cls-1 {
        fill: #881518;
      }
    </style>
  </defs>
  <path class="cls-1" d="M54.05,85.02l-.29-2.3c16.7-2.18,30.37-15.3,33.22-31.92l2.29.39c-1.49,8.69-5.66,16.52-12.03,22.66-6.4,6.16-14.42,10.02-23.19,11.17h0ZM43.28,85.02c-8.77-1.15-16.78-5.01-23.18-11.17-6.38-6.15-10.54-13.98-12.03-22.66l2.28-.39c2.85,16.62,16.52,29.74,33.23,31.92l-.3,2.3ZM53.69,79.4l-.33-2.3c15.04-2.13,26.7-14.16,28.36-29.26l2.3.26c-.86,7.8-4.35,15.2-9.84,20.85-5.47,5.63-12.76,9.35-20.5,10.44h0ZM43.64,79.4c-7.74-1.1-15.02-4.81-20.49-10.44-5.49-5.65-8.98-13.06-9.84-20.86l2.3-.25c1.65,15.1,13.31,27.13,28.35,29.26l-.33,2.3ZM76.73,26.35c-5.24-8.24-13.76-13.73-23.36-15.09l.32-2.3c10.29,1.45,19.4,7.34,25,16.14l-1.96,1.24ZM18.63,25.1c5.61-8.8,14.72-14.69,25-16.14l.33,2.3c-9.61,1.36-18.13,6.85-23.37,15.09M15.72,23.52l-1.96-1.23C20.33,11.83,31.08,4.93,43.28,3.34l.3,2.3c-11.5,1.5-21.66,8.02-27.86,17.89h0ZM81.61,23.52c-6.21-9.87-16.36-16.39-27.86-17.89l.3-2.3c12.18,1.59,22.94,8.49,29.52,18.96l-1.96,1.23Z"/>
  <path class="cls-1" d="M11.84,53.68c-.2,0-.4-.05-.58-.16L.58,47.35c-.56-.32-.74-1.02-.42-1.58l13.55-23.47c.15-.26.41-.46.7-.54.3-.08.62-.04.88.11l10.67,6.17c.56.32.75,1.02.42,1.58l-13.54,23.47c-.15.26-.41.46-.71.54-.1.03-.2.04-.3.04h0ZM2.74,45.93l8.67,5.01,12.4-21.46-8.68-5.01L2.74,45.93Z"/>
  <path class="cls-1" d="M21.79,56.14c-.22,0-.43-.06-.63-.19-.5-.32-.94-.6-1.32-.84-2.96-1.87-3.06-1.97-5.22-4.94-.31-.43-.67-.93-1.09-1.51-.27-.37-.3-.87-.07-1.26l10.93-18.92c.26-.45.79-.68,1.3-.54l.34.09,8.15-2.18c3.36-.9,6.6-.48,9.61,1.26l3.54,2.05c.55.32.74,1.02.42,1.58-.32.56-1.03.74-1.58.42l-3.54-2.04c-2.46-1.43-5.1-1.77-7.85-1.04l-8.44,2.26c-.12.04-.25.04-.37.04l-10.12,17.53c.25.33.46.63.66.9q1.93,2.68,4.57,4.35c.39.24.83.52,1.33.85.54.34.7,1.06.35,1.6-.22.34-.59.53-.97.53h0Z"/>
  <path class="cls-1" d="M76.07,54.23c-.35,0-.7-.16-.93-.46-.38-.51-.27-1.24.23-1.62l5.99-4.48-10.14-17.56-12.4-2s-.08,0-.11-.03c-2.75-.73-5.39-.39-7.85,1.04l-15.39,8.87,1.22,2.12c.73,1.26,2.15,1.85,3.51,1.47l13.79-3.89c2.55-.72,5.01-.41,7.32.92.56.32.74,1.02.42,1.58-.32.55-1.02.74-1.58.42-1.74-1.01-3.6-1.24-5.53-.69l-13.79,3.89c-2.41.68-4.88-.34-6.15-2.54l-1.79-3.12c-.32-.55-.13-1.25.42-1.58l16.39-9.46c2.99-1.73,6.21-2.16,9.55-1.28l12.88,2.08c.34.05.64.26.81.57l10.94,18.92c.29.5.16,1.16-.31,1.51l-6.81,5.09c-.21.15-.45.22-.7.22h0Z"/>
  <path class="cls-1" d="M85.49,53.68c-.1,0-.2-.02-.3-.04-.29-.08-.55-.27-.7-.54l-13.55-23.47c-.32-.56-.13-1.26.42-1.58l10.68-6.17c.26-.15.57-.19.87-.11s.55.27.71.54l13.54,23.47c.33.56.13,1.26-.42,1.58l-10.67,6.17c-.18.11-.38.16-.58.16h0ZM73.52,29.47l12.39,21.46,8.68-5.01-12.4-21.46-8.67,5.01Z"/>
  <path class="cls-1" d="M72.59,56.23c-.89,0-1.77-.23-2.56-.69l-15.32-8.84c-.56-.33-.74-1.03-.42-1.59.32-.55,1.02-.74,1.58-.42l15.32,8.85c.65.37,1.41.47,2.15.27.73-.19,1.35-.67,1.73-1.32.78-1.36.31-3.1-1.05-3.88l-13.87-8.02c-.56-.32-.75-1.02-.42-1.58.32-.56,1.02-.74,1.58-.42l13.88,8.02c2.46,1.42,3.31,4.58,1.89,7.05-.69,1.19-1.8,2.04-3.13,2.4-.45.11-.9.18-1.35.18h0Z"/>
  <path class="cls-1" d="M66.21,60.69c-.79,0-1.58-.2-2.3-.62l-2.25-1.3c-.55-.32-.74-1.02-.41-1.58.32-.56,1.02-.74,1.58-.42l2.24,1.3c1.11.64,2.54.26,3.19-.86.64-1.11.26-2.54-.86-3.19-.56-.33-.74-1.03-.42-1.59.32-.55,1.03-.74,1.58-.41,2.22,1.28,2.98,4.13,1.7,6.35-.87,1.49-2.44,2.32-4.04,2.32h0Z"/>
  <path class="cls-1" d="M60.48,65.44c-.8,0-1.6-.2-2.3-.62l-11.97-6.91c-.56-.32-.74-1.02-.42-1.58.33-.56,1.03-.74,1.58-.42l11.97,6.91c1.11.64,2.54.26,3.19-.86.31-.54.4-1.17.23-1.77-.16-.61-.55-1.11-1.09-1.43l-11.05-6.37c-.56-.33-.75-1.03-.43-1.59.33-.55,1.03-.74,1.59-.42l11.06,6.38c1.08.63,1.85,1.63,2.16,2.83.32,1.2.15,2.45-.47,3.52-.62,1.07-1.62,1.84-2.82,2.15-.41.11-.82.17-1.23.17h0Z"/>
  <path class="cls-1" d="M53.41,69.41c-.79,0-1.59-.19-2.31-.62l-3.33-1.92c-.55-.32-.74-1.02-.42-1.58.32-.56,1.03-.74,1.58-.42l3.33,1.92c1.11.64,2.54.26,3.19-.86.31-.53.39-1.16.23-1.77-.17-.6-.55-1.1-1.09-1.41-.56-.32-.75-1.03-.42-1.58.32-.56,1.02-.75,1.58-.43,1.07.62,1.84,1.62,2.16,2.83.33,1.2.16,2.45-.46,3.53-.86,1.48-2.43,2.31-4.03,2.31h0Z"/>
  <path class="cls-1" d="M25.41,61.8c-1.38,0-2.68-.54-3.65-1.51-.97-.97-1.5-2.27-1.5-3.65s.53-2.68,1.5-3.65l3.15-3.14c.96-.97,2.26-1.51,3.65-1.51h0c1.38,0,2.68.54,3.65,1.51,2,2.01,2,5.28,0,7.29l-3.15,3.14c-.97.97-2.26,1.51-3.65,1.51h0ZM28.57,50.66c-.76,0-1.47.3-2.01.83l-3.14,3.14c-.54.54-.83,1.24-.83,2.01s.29,1.47.83,2c.53.54,1.24.83,2,.83s1.47-.29,2-.83h0l3.15-3.14c1.1-1.1,1.1-2.9,0-4.02-.53-.53-1.24-.83-2-.83h0Z"/>
  <path class="cls-1" d="M31.48,66.39c-1.24,0-2.5-.48-3.45-1.43-.92-.92-1.42-2.15-1.42-3.45s.5-2.54,1.42-3.46l2.93-2.93c.93-.92,2.15-1.42,3.46-1.42s2.53.5,3.45,1.42c1.91,1.91,1.91,5.01,0,6.91l-2.93,2.93h0c-.95.95-2.21,1.43-3.46,1.43h0ZM34.12,64.15h0ZM34.42,56.01c-.7,0-1.34.26-1.82.75l-2.93,2.93c-1.01,1.01-1.01,2.63,0,3.64,1,1,2.63,1,3.64,0l2.92-2.93c1.01-1,1.01-2.63,0-3.64-.48-.49-1.12-.75-1.81-.75h0Z"/>
  <path class="cls-1" d="M37.48,69.7h0c-1.17,0-2.26-.45-3.08-1.28-.82-.81-1.28-1.91-1.28-3.08s.45-2.27,1.28-3.1l2.53-2.53c1.7-1.7,4.48-1.7,6.19,0,1.7,1.71,1.7,4.49,0,6.19l-2.53,2.53h0c-.82.82-1.92,1.27-3.09,1.27h0ZM39.76,67.6h0ZM40.02,60.74c-.53,0-1.06.2-1.46.6l-2.53,2.53c-.39.39-.6.91-.6,1.47s.21,1.06.6,1.45c.39.39.9.6,1.46.6h0c.56,0,1.07-.21,1.46-.6l2.53-2.53c.8-.8.79-2.11,0-2.91-.41-.4-.94-.6-1.46-.6h0Z"/>
  <path class="cls-1" d="M43.21,72.26c-1.09,0-2.09-.41-2.86-1.18-1.56-1.56-1.57-4.12,0-5.7l2.27-2.26c.76-.76,1.77-1.18,2.85-1.18h0c1.09,0,2.1.41,2.86,1.18,1.57,1.56,1.57,4.12,0,5.7l-2.27,2.26c-.76.77-1.77,1.18-2.85,1.18h0ZM45.47,64.24h0c-.46,0-.89.18-1.21.5l-2.27,2.26c-.67.67-.67,1.77,0,2.44.33.32.76.5,1.22.5h0c.46,0,.89-.19,1.21-.5h0l2.27-2.27c.66-.67.66-1.77,0-2.43-.33-.33-.76-.5-1.23-.5h0Z"/>
  <path class="cls-1" d="M48.66,13.91c-3.83,0-6.95-3.12-6.95-6.95s3.12-6.96,6.95-6.96,6.96,3.13,6.96,6.96-3.12,6.95-6.96,6.95h0ZM48.66,2.32c-2.55,0-4.64,2.07-4.64,4.64s2.08,4.64,4.64,4.64,4.64-2.07,4.64-4.64-2.08-4.64-4.64-4.64h0Z"/>
  <path class="cls-1" d="M48.66,88.35c-3.83,0-6.95-3.12-6.95-6.95s3.12-6.96,6.95-6.96,6.96,3.13,6.96,6.96-3.12,6.95-6.96,6.95h0ZM48.66,76.76c-2.55,0-4.64,2.08-4.64,4.64s2.08,4.64,4.64,4.64,4.64-2.08,4.64-4.64-2.08-4.64-4.64-4.64h0Z"/>
</svg>