<?xml version="1.0" encoding="UTF-8"?>
<svg id="Layer_1" data-name="Layer 1" xmlns="http://www.w3.org/2000/svg" viewBox="0 0 65.21 83.37">
  <defs>
    <style>
      .cls-1 {
        fill: none;
        stroke: #88181a;
        stroke-miterlimit: 10;
        stroke-width: 2.91px;
      }
    </style>
  </defs>
  <path class="cls-1" d="M33.14,30.89c-6.32,0-9.97-5.86-11.45-13.96-1.39-7.58.71-15.47,11.45-15.47,10.74,0,12.84,7.89,11.45,15.47-1.48,8.1-5.13,13.96-11.45,13.96Z"/>
  <path class="cls-1" d="M9.81,50.34l1.89-9.66c.36-1.96,1.67-3.61,3.49-4.41l7.74-3.4c1.36-.6,2.93.11,3.39,1.51l3.15,9.57c.11.34.58.35.71.02l1.59-4.07c.46-1.17,2.13-1.12,2.51.08l1.26,3.92c.11.34.59.35.72.01l3.45-9.53c.51-1.4,2.12-2.05,3.46-1.4l6.65,3.24c1.71.84,2.93,2.44,3.27,4.31l1.92,9.81H9.81Z"/>
  <polygon class="cls-1" points="63.76 50.34 63.76 59.9 58.92 67.44 51.39 67.44 52.32 59.81 12.47 59.81 13.4 67.44 6.3 67.44 1.45 59.9 1.45 50.34 63.76 50.34"/>
  <polyline class="cls-1" points="54.25 30.89 61.05 37.69 61.05 50.34"/>
  <ellipse class="cls-1" cx="51.33" cy="28.75" rx="2.42" ry="4.35" transform="translate(-3.5 50.07) rotate(-50.5)"/>
  <polygon class="cls-1" points="52.32 59.81 51.39 67.44 47.47 81.91 17.31 81.91 13.4 67.44 12.47 59.81 52.32 59.81"/>
</svg>