<?xml version="1.0" encoding="UTF-8"?>
<svg id="Layer_1" data-name="Layer 1" xmlns="http://www.w3.org/2000/svg" viewBox="0 0 71.74 69.72">
  <defs>
    <style>
      .cls-1 {
        fill: #881518;
      }
    </style>
  </defs>
  <path class="cls-1" d="M59.15,28.95h-6.7v-1.7h6.7c.82,0,1.52-1.03,1.52-2.25v-5.41h1.7v5.41c0,2.18-1.44,3.96-3.22,3.96h0Z"/>
  <path class="cls-1" d="M62.37,46.94h-1.7v-5.41c0-1.22-.7-2.25-1.52-2.25h-6.94v-1.7h6.94c1.78,0,3.22,1.78,3.22,3.96v5.41Z"/>
  <path class="cls-1" d="M19.29,28.95h-6.7c-1.78,0-3.23-1.78-3.23-3.96v-5.41h1.71v5.41c0,1.22.7,2.25,1.52,2.25h6.7v1.7h0Z"/>
  <path class="cls-1" d="M11.07,46.94h-1.7v-5.41c0-2.18,1.45-3.96,3.23-3.96h6.92v1.7h-6.92c-.83,0-1.52,1.03-1.52,2.25v5.41h0Z"/>
  <path class="cls-1" d="M43.66,56.38h-15.57c-.39,0-.73-.27-.83-.64-1.18-4.57-2.97-7.35-5.43-11.2-.41-.64-.84-1.3-1.28-2.01-1.82-2.89-2.79-6.23-2.79-9.65,0-9.98,8.13-18.11,18.11-18.11s18.11,8.13,18.11,18.11c0,3.42-.96,6.76-2.79,9.65-.44.7-.87,1.36-1.27,1.99-2.47,3.85-4.26,6.64-5.44,11.22-.1.38-.44.64-.83.64h0ZM28.74,54.67h14.26c1.25-4.46,3.05-7.26,5.49-11.07.4-.63.83-1.29,1.27-1.98,1.65-2.62,2.52-5.64,2.52-8.74,0-9.04-7.36-16.4-16.4-16.4s-16.4,7.36-16.4,16.4c0,3.1.87,6.12,2.52,8.74.45.7.87,1.36,1.28,2,2.43,3.8,4.23,6.6,5.47,11.06h0Z"/>
  <path class="cls-1" d="M37.06,45.78h-2.39c-.88,0-1.65-.56-1.92-1.4l-.36-1.11c-.48-.16-.96-.35-1.41-.58l-1.05.53c-.78.4-1.72.25-2.34-.37l-1.69-1.7c-.62-.62-.77-1.56-.38-2.34l.53-1.04c-.23-.46-.42-.92-.59-1.41l-1.11-.36c-.83-.27-1.39-1.04-1.39-1.93v-2.39c0-.88.56-1.65,1.4-1.92l1.11-.36c.16-.48.36-.96.59-1.41l-.53-1.03c-.4-.79-.25-1.73.37-2.35l1.7-1.7c.62-.62,1.54-.77,2.34-.37l1.05.53c.46-.23.93-.42,1.41-.59l.36-1.11c.26-.83,1.03-1.39,1.92-1.39h2.39c.9,0,1.65.55,1.93,1.4l.36,1.11c.48.16.95.36,1.41.59l1.03-.53c.8-.4,1.72-.25,2.35.38l1.69,1.69c.62.62.77,1.56.38,2.35l-.53,1.04c.23.46.42.92.59,1.41l1.11.36c.85.27,1.39,1.03,1.39,1.92v2.4c0,.88-.56,1.65-1.4,1.92l-1.1.36c-.17.48-.36.95-.59,1.41l.53,1.04c.4.79.25,1.73-.38,2.35l-1.69,1.69c-.62.62-1.56.77-2.34.37l-1.04-.53c-.46.23-.93.42-1.41.59l-.36,1.11c-.27.83-1.05,1.39-1.93,1.39h0ZM30.98,40.88c.14,0,.29.04.42.11.6.33,1.24.6,1.9.79.27.08.49.29.58.56l.12.39.37,1.14c.05.14.16.21.3.21h2.39c.15,0,.25-.08.3-.21l.49-1.53c.09-.27.31-.48.58-.56.66-.19,1.3-.46,1.9-.79.25-.14.55-.14.81-.01l.37.19,1.06.53c.13.07.26.05.36-.05l1.69-1.7c.1-.1.12-.23.06-.36l-.73-1.43c-.13-.25-.12-.55.01-.8.33-.6.6-1.24.79-1.91.08-.27.29-.49.55-.57l1.52-.49c.14-.05.22-.16.22-.3v-2.39c0-.15-.08-.25-.21-.3l-1.53-.49c-.27-.09-.47-.31-.55-.57-.2-.66-.46-1.31-.79-1.91-.14-.25-.14-.55-.01-.79l.73-1.44c.07-.13.05-.26-.06-.36l-1.69-1.7c-.1-.1-.24-.12-.37-.06l-1.43.73c-.25.12-.55.12-.79-.01-.61-.34-1.26-.6-1.91-.79-.27-.08-.49-.29-.58-.57l-.12-.39-.37-1.13c-.05-.14-.15-.21-.3-.21h-2.39c-.15,0-.25.08-.3.21l-.49,1.52c-.09.27-.31.48-.58.57-.66.19-1.3.45-1.91.79-.25.14-.55.14-.8,0l-1.43-.73c-.13-.07-.26-.04-.36.07l-1.7,1.69c-.1.1-.12.23-.05.36l.73,1.44c.13.25.12.55-.01.8-.34.6-.61,1.24-.79,1.9-.08.27-.29.49-.56.58l-.39.12-1.13.37c-.14.05-.21.15-.21.3v2.39c0,.14.08.25.21.3l1.52.49c.27.08.48.31.56.58.2.66.46,1.3.79,1.9.14.25.14.55.01.8l-.73,1.44c-.07.13-.05.26.05.36l1.7,1.69c.1.1.23.12.36.06l1.43-.73c.12-.06.26-.1.4-.1h0Z"/>
  <path class="cls-1" d="M35.87,39.5c-1.76,0-3.43-.69-4.68-1.94-2.58-2.58-2.58-6.77,0-9.36,2.58-2.58,6.78-2.58,9.36,0h0c2.58,2.58,2.58,6.78,0,9.36-1.25,1.25-2.92,1.94-4.68,1.94h0ZM35.87,27.97c-1.26,0-2.51.48-3.47,1.44-1.91,1.91-1.91,5.03,0,6.94.92.93,2.16,1.44,3.47,1.44s2.54-.51,3.47-1.44c1.91-1.91,1.91-5.03,0-6.94-.96-.96-2.22-1.44-3.47-1.44h0Z"/>
  <path class="cls-1" d="M40.28,69.72h-8.82c-1.09,0-1.98-.89-1.98-1.98v-4.61c0-.48.38-.85.85-.85s.86.38.86.85v4.61c0,.14.12.27.27.27h8.82c.15,0,.27-.12.27-.27v-4.61c0-.48.38-.85.85-.85s.85.38.85.85v4.61c0,1.09-.88,1.98-1.98,1.98h0Z"/>
  <path class="cls-1" d="M42.53,63.99h-13.33c-1.09,0-1.97-.88-1.97-1.97v-6.49c0-.48.38-.86.85-.86s.85.38.85.86v6.49c0,.14.12.27.27.27h13.32c.15,0,.27-.12.27-.27v-6.49c0-.48.38-.86.85-.86s.85.38.85.86v6.49c0,1.09-.89,1.97-1.98,1.97h0Z"/>
  <path class="cls-1" d="M35.87,56.38c-.47,0-.85-.38-.85-.85v-10.6c0-.47.38-.85.85-.85s.85.38.85.85v10.6c0,.47-.38.85-.85.85h0Z"/>
  <path class="cls-1" d="M10.22,20.44C4.59,20.44,0,15.85,0,10.22S4.58,0,10.22,0s10.22,4.58,10.22,10.22-4.59,10.22-10.22,10.22h0ZM10.22,1.71C5.52,1.71,1.7,5.53,1.7,10.22s3.82,8.51,8.51,8.51,8.51-3.82,8.51-8.51S14.91,1.71,10.22,1.71h0Z"/>
  <path class="cls-1" d="M61.52,66.52c-5.64,0-10.22-4.58-10.22-10.22s4.58-10.22,10.22-10.22,10.22,4.58,10.22,10.22-4.58,10.22-10.22,10.22h0ZM61.52,47.79c-4.69,0-8.51,3.82-8.51,8.51s3.82,8.51,8.51,8.51,8.51-3.82,8.51-8.51-3.82-8.51-8.51-8.51h0Z"/>
  <path class="cls-1" d="M.85,66.52c-.22,0-.44-.08-.6-.25-.21-.21-.31-.53-.22-.83l1.16-4.35c-.78-1.47-1.2-3.12-1.2-4.8,0-5.64,4.59-10.22,10.22-10.22s10.22,4.58,10.22,10.22-4.58,10.22-10.22,10.22c-1.67,0-3.33-.41-4.8-1.19l-4.35,1.16c-.07.02-.15.03-.22.03h0ZM5.54,63.56c.14,0,.29.04.42.12,1.29.74,2.77,1.14,4.26,1.14,4.7,0,8.51-3.82,8.51-8.51s-3.81-8.51-8.51-8.51-8.51,3.82-8.51,8.51c0,1.5.4,2.97,1.15,4.26.11.2.14.43.08.65l-.87,3.25,3.25-.87c.08-.02.15-.03.23-.03h0Z"/>
  <path class="cls-1" d="M61.52,20.44c-5.64,0-10.22-4.59-10.22-10.22S55.88,0,61.52,0s10.22,4.58,10.22,10.22-4.58,10.22-10.22,10.22h0ZM61.52,1.71c-4.69,0-8.51,3.82-8.51,8.51s3.82,8.51,8.51,8.51,8.51-3.82,8.51-8.51-3.82-8.51-8.51-8.51h0Z"/>
  <path class="cls-1" d="M8.79,14.35c-.27,0-.52-.12-.68-.34l-2.13-2.8c-.29-.37-.21-.91.16-1.2.38-.28.91-.21,1.2.16l1.45,1.91,4.3-5.65c.29-.38.82-.45,1.2-.16.38.29.45.82.16,1.2l-4.98,6.55c-.16.21-.41.34-.68.34h0Z"/>
  <path class="cls-1" d="M57.81,12.7c-.48,0-.86-.38-.86-.85v-2.49c0-.47.38-.85.86-.85s.85.38.85.85v2.49c0,.47-.38.85-.85.85h0Z"/>
  <path class="cls-1" d="M61.54,12.7c-.48,0-.85-.38-.85-.85v-4c0-.48.38-.86.85-.86s.85.38.85.86v4c0,.47-.38.85-.85.85h0Z"/>
  <path class="cls-1" d="M65.28,12.7c-.47,0-.85-.38-.85-.85v-5.87c0-.47.38-.85.85-.85s.85.38.85.85v5.87c0,.47-.38.85-.85.85h0Z"/>
  <path class="cls-1" d="M65.91,15.32h-8.78c-.48,0-.85-.38-.85-.86s.38-.85.85-.85h8.78c.47,0,.85.38.85.85s-.38.86-.85.86h0Z"/>
  <path class="cls-1" d="M60.09,60.43h0c-.27,0-.52-.13-.68-.34l-2.13-2.8c-.29-.38-.21-.91.16-1.2.38-.29.91-.21,1.2.16l1.45,1.91,4.3-5.66c.29-.38.82-.45,1.2-.16.38.29.45.82.16,1.2l-4.98,6.55c-.16.21-.41.34-.68.34h0Z"/>
  <path class="cls-1" d="M10.93,53.2h-5.6c-.47,0-.85-.38-.85-.85s.38-.85.85-.85h5.6c.47,0,.85.38.85.85s-.38.85-.85.85h0Z"/>
  <path class="cls-1" d="M15.1,53.2h-1.89c-.48,0-.86-.38-.86-.85s.38-.85.86-.85h1.89c.48,0,.86.38.86.85s-.38.85-.85.85h0Z"/>
  <path class="cls-1" d="M10.93,57.15h-5.6c-.47,0-.85-.38-.85-.85s.38-.85.85-.85h5.6c.47,0,.85.38.85.85s-.38.85-.85.85h0Z"/>
  <path class="cls-1" d="M15.1,57.15h-1.89c-.48,0-.86-.38-.86-.85s.38-.85.86-.85h1.89c.48,0,.86.38.86.85s-.38.85-.85.85h0Z"/>
  <path class="cls-1" d="M15.1,61.1h-5.6c-.47,0-.85-.38-.85-.85s.38-.85.85-.85h5.6c.47,0,.85.38.85.85s-.38.85-.85.85h0Z"/>
  <path class="cls-1" d="M7.23,61.1h-1.9c-.47,0-.85-.38-.85-.85s.38-.85.85-.85h1.9c.47,0,.85.38.85.85s-.38.85-.85.85h0Z"/>
</svg>