<?xml version="1.0" encoding="UTF-8"?>
<svg id="Layer_1" data-name="Layer 1" xmlns="http://www.w3.org/2000/svg" viewBox="0 0 73.31 64.16">
  <defs>
    <style>
      .cls-1 {
        fill: #881518;
      }
    </style>
  </defs>
  <path class="cls-1" d="M53.86,64.16h-28.93c-.23,0-.45-.09-.61-.26-.17-.17-.26-.39-.26-.63l.08-11.46c0-.48.39-.86.87-.86h0c.49,0,.87.4.86.88l-.07,10.58h27.18v-5.39c0-.25.11-.5.31-.66.19-.17.45-.24.7-.21,1.4.22,3.7-.05,5.87-.67,2.46-.71,3.45-1.52,3.54-1.8,0-.01,0-.02,0-.03l-.82-10.71c-.04-.45.27-.85.72-.92,1.78-.31,3.18-.34,4.3-.36,1.02-.02,1.84-.04,2.57-.24.51-.14,1.14-.41,1.34-.92.19-.51-.09-1.09-.27-1.4-.26-.42-.56-.88-.88-1.38-1.89-2.94-4.47-6.96-4.42-10.77.07-5.26-1.38-10.39-4.21-14.83C55.01,1.29,41.12-.24,30.84,3.84c-.21.09-.43.18-.65.27l-.35-.8-.35-.8c.24-.1.46-.2.69-.29C36.07-.12,42.53-.63,48.41.78c6.4,1.52,11.51,5.13,14.78,10.43,3.01,4.71,4.56,10.17,4.48,15.77-.05,3.29,2.37,7.06,4.14,9.8.33.51.63.98.9,1.42.62,1,.76,2.05.41,2.94-.26.65-.9,1.52-2.49,1.97-.95.26-1.9.28-3,.31-.94.02-1.98.04-3.26.21l.76,9.88c.05.41-.05,1.02-.7,1.66-1.71,1.67-6.63,2.87-9.71,2.8v5.31c0,.49-.39.88-.87.88h0Z"/>
  <path class="cls-1" d="M38.68,45.27c-.49,0-1-.12-1.47-.36l-2.46-1.26c-1.18.63-2.43,1.14-3.72,1.52-.46.13-.94-.13-1.08-.59-.14-.47.13-.95.59-1.09,1.32-.39,2.59-.93,3.79-1.59.25-.14.56-.15.82-.01l2.87,1.46c.59.3,1.23.19,1.7-.27l3.38-3.39c.46-.45.57-1.12.27-1.7l-1.46-2.87c-.13-.26-.13-.57.01-.82.7-1.27,1.26-2.61,1.66-3.98.08-.28.29-.5.57-.59l3.06-.98c.61-.2,1.01-.74,1.01-1.39v-4.8c0-.64-.4-1.18-1.01-1.38l-3.06-1c-.27-.09-.49-.31-.57-.59-.39-1.37-.95-2.71-1.66-3.98-.14-.25-.15-.56-.01-.82l1.46-2.87c.3-.58.19-1.23-.27-1.7l-3.38-3.38c-.47-.47-1.11-.57-1.7-.27l-2.87,1.46c-.26.13-.57.13-.82-.01-1.26-.7-2.6-1.25-3.98-1.65-.28-.08-.5-.29-.59-.57l-.26-.77-.74-2.29c-.2-.61-.74-1.01-1.39-1.01h-4.79c-.65,0-1.19.4-1.39,1.01l-1,3.06c-.09.27-.31.49-.59.57-1.38.4-2.72.95-3.98,1.65-.25.14-.56.15-.82.01l-2.87-1.46c-.59-.3-1.23-.2-1.69.27l-3.39,3.38c-.47.47-.57,1.12-.27,1.7l1.46,2.87c.13.26.13.57-.01.82-.7,1.27-1.26,2.61-1.66,3.98-.08.28-.29.5-.57.59l-3.05,1c-.62.2-1.01.74-1.01,1.39v4.79c0,.65.39,1.19,1.01,1.39l3.05.99c.27.09.49.31.57.59.4,1.37.95,2.71,1.66,3.98.14.26.15.57.01.82l-.38.73-1.08,2.13c-.3.58-.19,1.24.27,1.7l3.39,3.39c.46.47,1.11.57,1.69.27l2.87-1.46c.26-.13.57-.13.82.01,1.2.67,2.47,1.2,3.79,1.6.46.14.72.63.59,1.08-.14.47-.63.72-1.09.59-1.28-.39-2.53-.9-3.72-1.52l-2.46,1.25c-1.26.65-2.72.41-3.72-.59l-3.39-3.39c-1-1-1.24-2.46-.59-3.72l1.25-2.45c-.59-1.12-1.07-2.29-1.44-3.48l-2.62-.84c-1.35-.44-2.22-1.64-2.22-3.05v-4.79c0-1.41.87-2.61,2.22-3.05l2.62-.85c.37-1.19.86-2.36,1.44-3.48l-.17-.32-1.08-2.14c-.65-1.26-.41-2.71.59-3.72l3.39-3.39c1-1,2.46-1.23,3.72-.59l2.46,1.26c1.12-.59,2.28-1.07,3.48-1.44l.11-.35.73-2.27C19.96.88,21.15.02,22.57.02h4.79c1.42,0,2.61.86,3.05,2.21l.85,2.62c1.2.37,2.37.86,3.48,1.44l2.46-1.25c1.26-.65,2.72-.41,3.72.59l3.39,3.39c1,1,1.24,2.47.59,3.72l-1.25,2.45c.59,1.12,1.07,2.29,1.45,3.48l2.62.85c1.34.44,2.21,1.64,2.21,3.05v4.8c0,1.41-.87,2.61-2.21,3.05l-2.63.84c-.37,1.2-.86,2.37-1.44,3.48l1.25,2.46c.65,1.26.42,2.72-.59,3.72l-3.38,3.38c-.63.62-1.42.94-2.25.94h0Z"/>
  <path class="cls-1" d="M28.26,52.7h-6.59c-.94,0-1.71-.77-1.71-1.71v-3.44c0-.48.39-.87.87-.87s.87.39.87.87v3.4h6.52v-3.4c0-.48.39-.87.87-.87s.88.39.88.87v3.44c0,.94-.77,1.71-1.72,1.71h0Z"/>
  <path class="cls-1" d="M29.94,48.42h-9.94c-.94,0-1.71-.76-1.71-1.71v-4.84c0-.49.39-.87.87-.87h11.62c.48,0,.87.39.87.87v4.84c0,.94-.76,1.71-1.71,1.71h0ZM20.03,46.68h9.88v-3.94h-9.88v3.94Z"/>
  <path class="cls-1" d="M27.05,42.74c-.49,0-.87-.39-.87-.87v-12.49h-2.41v12.49c0,.48-.39.87-.87.87s-.87-.39-.87-.87v-12.49h-1.2c-1.63,0-2.95-1.32-2.95-2.95s1.32-2.95,2.95-2.95,2.95,1.32,2.95,2.95v1.21h2.41v-1.21c0-1.62,1.32-2.95,2.95-2.95s2.95,1.32,2.95,2.95-1.32,2.95-2.95,2.95h-1.2v12.49c0,.48-.39.87-.87.87h0ZM27.92,27.64h1.2c.67,0,1.2-.54,1.2-1.2s-.54-1.21-1.2-1.21-1.2.55-1.2,1.21v1.2ZM20.81,25.23c-.67,0-1.21.55-1.21,1.21s.55,1.2,1.21,1.2h1.2v-1.2c0-.67-.54-1.21-1.2-1.21h0Z"/>
  <path class="cls-1" d="M30.78,42.74h-11.62c-.4,0-.74-.27-.84-.65-.88-3.38-2.2-5.45-4.04-8.31-.3-.47-.62-.96-.94-1.48-1.39-2.19-2.11-4.73-2.11-7.33,0-7.58,6.16-13.75,13.75-13.75s13.75,6.16,13.75,13.75c0,2.6-.72,5.13-2.11,7.33-.33.53-.65,1.02-.95,1.49-1.84,2.86-3.16,4.92-4.04,8.31-.1.39-.45.65-.84.65h0ZM19.82,41h10.29c.94-3.28,2.34-5.45,4.08-8.16.3-.47.61-.96.94-1.48,1.2-1.92,1.84-4.12,1.84-6.4,0-6.62-5.39-12-12.01-12s-12,5.39-12,12c0,2.27.64,4.48,1.84,6.4.33.52.65,1,.94,1.48,1.74,2.71,3.13,4.87,4.08,8.16h0Z"/>
</svg>