<?xml version="1.0" encoding="UTF-8"?>
<svg id="Layer_1" data-name="Layer 1" xmlns="http://www.w3.org/2000/svg" viewBox="0 0 71.96 85.28">
  <defs>
    <style>
      .cls-1 {
        fill: #881518;
      }
    </style>
  </defs>
  <path class="cls-1" d="M37.59,53.17h-3.22c-1.12,0-2.11-.72-2.45-1.79l-.51-1.55c-.68-.22-1.35-.5-2-.82l-1.45.73c-1,.52-2.2.32-2.99-.48l-2.27-2.27c-.8-.81-.99-1.99-.48-2.99l.74-1.45c-.32-.65-.6-1.32-.83-2l-1.55-.5c-1.07-.34-1.79-1.33-1.79-2.45v-3.22c0-1.12.72-2.11,1.79-2.45l1.54-.5c.22-.69.5-1.35.84-2l-.02-.02-.73-1.42c-.51-1.01-.32-2.2.47-3l2.27-2.27c.8-.8,2-.98,3-.48l1.45.75c.65-.33,1.32-.61,2-.84l.5-1.55c.34-1.07,1.33-1.79,2.45-1.79h3.22c1.12,0,2.11.72,2.45,1.79l.5,1.54c.69.22,1.35.5,2,.84l1.45-.74c1.01-.52,2.19-.33,2.99.46l2.28,2.29c.8.79.99,2,.47,2.99l-.74,1.45c.33.65.61,1.32.84,2l1.55.5c1.07.34,1.79,1.33,1.79,2.45v3.22c0,1.13-.72,2.11-1.79,2.45l-1.55.51c-.22.68-.5,1.35-.83,2l.74,1.45c.51.99.32,2.2-.47,2.99l-2.27,2.27c-.8.8-2,.99-3,.47l-1.45-.73c-.63.32-1.31.6-2,.83l-.5,1.55c-.34,1.07-1.33,1.79-2.45,1.79h0ZM29.43,46.85c.17,0,.34.04.5.12.81.45,1.68.81,2.58,1.07.32.09.58.35.68.67l.67,2.05c.08.24.27.39.53.39h3.22c.25,0,.44-.15.52-.39l.67-2.05c.11-.32.36-.57.69-.67.91-.26,1.77-.62,2.58-1.07.29-.16.65-.17.95-.02l1.92.97c.22.12.46.08.64-.1l2.27-2.27c.18-.18.22-.41.1-.63l-.97-1.93c-.15-.3-.15-.66.02-.95.46-.83.82-1.69,1.07-2.58.09-.32.34-.59.67-.69l2.05-.67c.24-.08.38-.28.38-.53v-3.22c0-.25-.14-.44-.38-.52l-2.05-.67c-.32-.1-.57-.36-.67-.69-.25-.88-.61-1.75-1.07-2.58-.16-.29-.17-.65-.02-.94l.97-1.93c.12-.22.08-.46-.09-.63l-2.28-2.28c-.18-.17-.42-.21-.64-.1l-1.92.98c-.3.15-.66.15-.95-.02-.82-.46-1.69-.81-2.58-1.08-.32-.09-.58-.34-.68-.66l-.67-2.05c-.08-.24-.28-.38-.53-.38h-3.22c-.25,0-.45.14-.52.38l-.67,2.05c-.1.32-.36.57-.68.67-.89.26-1.76.62-2.58,1.07-.3.16-.65.17-.95.02l-.5-.25-1.44-.74c-.22-.11-.46-.07-.63.11l-2.28,2.27c-.17.18-.21.42-.1.64l.99,1.93c.15.3.14.65-.02.95-.46.82-.81,1.69-1.07,2.58-.09.32-.35.58-.67.68l-2.04.67c-.25.08-.39.27-.39.52v3.22c0,.26.14.45.38.53l2.05.67c.32.1.57.36.67.68.26.9.61,1.76,1.07,2.58.17.29.17.65.02.95l-.99,1.93c-.11.22-.07.46.11.64l2.27,2.27c.18.17.42.22.63.1l1.93-.98c.15-.07.3-.11.46-.11h0Z"/>
  <path class="cls-1" d="M35.99,44.73c-2.34,0-4.53-.91-6.18-2.56-1.66-1.66-2.57-3.84-2.57-6.19s.91-4.53,2.57-6.18c1.65-1.65,3.84-2.56,6.18-2.56s4.53.91,6.18,2.56c1.66,1.66,2.56,3.84,2.56,6.18s-.91,4.53-2.56,6.19c-1.65,1.65-3.84,2.56-6.18,2.56h0ZM35.99,29.26c-1.79,0-3.48.7-4.75,1.96-1.27,1.28-1.97,2.95-1.97,4.75s.7,3.48,1.97,4.75c1.27,1.27,2.95,1.97,4.75,1.97s3.48-.7,4.74-1.97c1.28-1.27,1.97-2.95,1.97-4.75s-.7-3.48-1.96-4.75h0c-1.26-1.27-2.95-1.96-4.74-1.96h0Z"/>
  <path class="cls-1" d="M35.54,7.16c-.56,0-1.01-.45-1.01-1.01V1.01c0-.56.45-1.01,1.01-1.01s1.01.45,1.01,1.01v5.14c0,.56-.46,1.01-1.01,1.01h0Z"/>
  <path class="cls-1" d="M20.68,11.39c-.36,0-.7-.18-.88-.51l-2.57-4.45c-.29-.49-.12-1.11.37-1.38.48-.29,1.11-.12,1.38.37l2.57,4.45c.28.49.12,1.11-.37,1.38-.16.09-.33.14-.5.14h0Z"/>
  <path class="cls-1" d="M9.92,22.47c-.18,0-.35-.05-.51-.14l-4.45-2.57c-.49-.28-.65-.9-.37-1.38.29-.49.91-.65,1.38-.37l4.45,2.57c.49.28.65.9.37,1.38-.19.32-.53.51-.87.51h0Z"/>
  <path class="cls-1" d="M6.15,37.44H1.01c-.56,0-1.01-.45-1.01-1.01s.46-1.01,1.01-1.01h5.14c.56,0,1.02.46,1.02,1.01s-.46,1.01-1.02,1.01h0Z"/>
  <path class="cls-1" d="M5.93,54.87c-.36,0-.7-.18-.88-.5-.28-.49-.12-1.11.37-1.39l4.45-2.57c.49-.28,1.11-.11,1.39.37.28.49.11,1.11-.37,1.38l-4.46,2.58c-.15.09-.33.13-.5.13h0Z"/>
  <path class="cls-1" d="M50.51,10.94c-.17,0-.34-.05-.5-.14-.49-.28-.65-.9-.37-1.38l2.57-4.45c.28-.49.91-.65,1.38-.37.49.28.66.91.37,1.38l-2.57,4.45c-.19.32-.53.51-.88.51h0Z"/>
  <path class="cls-1" d="M61.6,21.69c-.36,0-.7-.18-.88-.5-.28-.49-.12-1.11.37-1.38l4.45-2.58c.48-.28,1.1-.11,1.38.37.28.49.12,1.11-.37,1.38l-4.45,2.58c-.16.09-.33.13-.5.13h0Z"/>
  <path class="cls-1" d="M70.95,36.55h-5.14c-.56,0-1.01-.46-1.01-1.02s.46-1.01,1.01-1.01h5.14c.56,0,1.01.46,1.01,1.01s-.45,1.02-1.01,1.02h0Z"/>
  <path class="cls-1" d="M66.49,54.09c-.17,0-.34-.05-.5-.14l-4.45-2.57c-.49-.28-.66-.9-.37-1.38.28-.49.9-.65,1.38-.37l4.45,2.57c.49.29.65.91.37,1.38-.19.32-.53.51-.88.51h0Z"/>
  <path class="cls-1" d="M35.99,67.38c-.56,0-1.02-.45-1.02-1.01v-14.21c0-.56.46-1.01,1.02-1.01s1.01.45,1.01,1.01v14.21c0,.56-.46,1.01-1.01,1.01h0Z"/>
  <path class="cls-1" d="M46.43,67.38h-20.89c-.46,0-.87-.31-.98-.76-1.59-6.16-3.98-9.89-7.3-15.05-.55-.87-1.12-1.76-1.73-2.72-2.43-3.84-3.71-8.29-3.71-12.87,0-13.32,10.84-24.16,24.16-24.16s24.17,10.84,24.17,24.16c0,4.58-1.28,9.04-3.71,12.87-.6.96-1.18,1.85-1.73,2.72-3.31,5.17-5.71,8.9-7.29,15.05-.12.45-.52.76-.98.76h0ZM26.32,65.35h19.33c1.67-6.02,4.08-9.77,7.36-14.88.55-.86,1.12-1.75,1.72-2.7,2.23-3.52,3.4-7.6,3.4-11.79,0-12.21-9.92-22.13-22.13-22.13s-22.13,9.92-22.13,22.13c0,4.19,1.17,8.27,3.4,11.79.6.95,1.17,1.84,1.72,2.71,3.28,5.11,5.69,8.86,7.35,14.88h0Z"/>
  <path class="cls-1" d="M41.9,85.28h-11.84c-1.38,0-2.52-1.13-2.52-2.52v-6.18c0-.56.46-1.01,1.02-1.01s1.01.46,1.01,1.01v6.18c0,.27.22.49.49.49h11.84c.27,0,.5-.22.5-.49v-6.18c0-.56.46-1.01,1.01-1.01s1.02.46,1.02,1.01v6.18c0,1.39-1.14,2.52-2.53,2.52h0Z"/>
  <path class="cls-1" d="M44.92,77.59h-17.88c-1.38,0-2.51-1.13-2.51-2.52v-8.7c0-.56.45-1.01,1.01-1.01s1.01.45,1.01,1.01v8.7c0,.27.22.5.5.5h17.88c.27,0,.49-.22.49-.5v-8.7c0-.56.46-1.01,1.02-1.01s1.01.45,1.01,1.01v8.7c0,1.39-1.14,2.52-2.53,2.52h0Z"/>
</svg>