<?xml version="1.0" encoding="UTF-8"?>
<svg id="Layer_1" data-name="Layer 1" xmlns="http://www.w3.org/2000/svg" viewBox="0 0 59.92 82.1">
  <defs>
    <style>
      .cls-1 {
        fill: #881518;
      }
    </style>
  </defs>
  <path class="cls-1" d="M35.04,82.1h-7.35c-15.27,0-27.69-12.42-27.69-27.69V0h36.88c12.71,0,23.04,10.34,23.04,23.04v1.31c0,6.23-2.49,11.9-6.52,16.05,4.05,4.44,6.52,10.34,6.52,16.81,0,13.72-11.16,24.88-24.88,24.88ZM15.15,15.15v39.25c0,6.91,5.63,12.54,12.54,12.54h7.35c5.37,0,9.73-4.36,9.73-9.73s-4.41-9.82-9.82-9.82h-10.28v-15.15h12.22c4.35,0,7.89-3.54,7.89-7.89v-1.31c0-4.35-3.54-7.89-7.89-7.89H15.15Z"/>
</svg>