<?xml version="1.0" encoding="UTF-8"?>
<svg id="Layer_1" data-name="Layer 1" xmlns="http://www.w3.org/2000/svg" viewBox="0 0 59.55 9.06">
  <defs>
    <style>
      .cls-1 {
        fill: #fff;
      }

      .cls-2 {
        fill: #881518;
      }
    </style>
  </defs>
  <g>
    <path class="cls-1" d="M3.87,9.06h-.81c-1.69,0-3.06-1.37-3.06-3.06V0h4.07c1.4,0,2.54,1.14,2.54,2.54v.14c0,.69-.27,1.31-.72,1.77.45.49.72,1.14.72,1.86,0,1.51-1.23,2.75-2.75,2.75ZM1.67,1.67v4.33c0,.76.62,1.38,1.38,1.38h.81c.59,0,1.07-.48,1.07-1.07s-.49-1.08-1.08-1.08h-1.14v-1.67h1.35c.48,0,.87-.39.87-.87v-.14c0-.48-.39-.87-.87-.87H1.67Z"/>
    <path class="cls-1" d="M12.99,0v3.91h-3.13V1.19C9.85.54,9.32,0,8.67,0h-.64v8.8h1.83v-3.29h3.13v3.29h1.83V0h-1.83Z"/>
    <path class="cls-1" d="M21.02,0h-4.03v8.86h1.83v-3.19h2.98v3.19h1.83V2.62c0-1.44-1.17-2.61-2.61-2.61ZM18.82,4.13V1.6h1.76c.67,0,1.22.55,1.22,1.22v1.31h-2.98Z"/>
    <path class="cls-1" d="M56.94,0h-4.03v8.86h1.83v-3.19h2.98v3.19h1.83V2.62c0-1.44-1.17-2.61-2.61-2.61ZM54.75,4.13V1.6h1.76c.67,0,1.22.55,1.22,1.22v1.31h-2.98Z"/>
    <path class="cls-1" d="M39.94,0h-7.36c0,.91.74,1.65,1.65,1.65h1.39v7.18h1.88V1.65h2.44V0Z"/>
    <rect class="cls-1" x="41.25" y=".02" width="1.92" height="8.84"/>
    <path class="cls-1" d="M52.01,0h-.5c-.88,0-1.7.49-2.11,1.28l-1.31,2.48-1.3-2.46c-.42-.79-1.24-1.28-2.13-1.27h-.48s2.89,5.48,2.89,5.48v3.37h1.92v-3.19L52.01,0Z"/>
    <path class="cls-1" d="M30.79,5.44c.96-.43,1.63-1.39,1.63-2.5v-.3C32.42,1.18,31.24,0,29.79,0h-1.79c-1.26,0-2.29,1.02-2.29,2.29v6.57h1.83v-3.19h1.48l1.54,2.43c.34.53.93.84,1.56.81l.84-.05-2.17-3.43ZM27.54,4.22v-1.89c0-.33.27-.6.6-.6h1.25c.69,0,1.24.56,1.24,1.24h0c0,.69-.56,1.24-1.24,1.24h-1.84Z"/>
  </g>
  <g>
    <path class="cls-2" d="M3.87,9.06h-.81c-1.69,0-3.06-1.37-3.06-3.06V0h4.07c1.4,0,2.54,1.14,2.54,2.54v.14c0,.69-.27,1.31-.72,1.77.45.49.72,1.14.72,1.86,0,1.51-1.23,2.75-2.75,2.75ZM1.67,1.67v4.33c0,.76.62,1.38,1.38,1.38h.81c.59,0,1.07-.48,1.07-1.07s-.49-1.08-1.08-1.08h-1.14v-1.67h1.35c.48,0,.87-.39.87-.87v-.14c0-.48-.39-.87-.87-.87H1.67Z"/>
    <path class="cls-2" d="M12.99,0v3.91h-3.13V1.19C9.85.54,9.32,0,8.67,0h-.64v8.8h1.83v-3.29h3.13v3.29h1.83V0h-1.83Z"/>
    <path class="cls-2" d="M21.02,0h-4.03v8.86h1.83v-3.19h2.98v3.19h1.83V2.62c0-1.44-1.17-2.61-2.61-2.61ZM18.82,4.13V1.6h1.76c.67,0,1.22.55,1.22,1.22v1.31h-2.98Z"/>
    <path class="cls-2" d="M56.94,0h-4.03v8.86h1.83v-3.19h2.98v3.19h1.83V2.62c0-1.44-1.17-2.61-2.61-2.61ZM54.75,4.13V1.6h1.76c.67,0,1.22.55,1.22,1.22v1.31h-2.98Z"/>
    <path class="cls-2" d="M39.94,0h-7.36c0,.91.74,1.65,1.65,1.65h1.39v7.18h1.88V1.65h2.44V0Z"/>
    <rect class="cls-2" x="41.25" y=".02" width="1.92" height="8.84"/>
    <path class="cls-2" d="M52.01,0h-.5c-.88,0-1.7.49-2.11,1.28l-1.31,2.48-1.3-2.46c-.42-.79-1.24-1.28-2.13-1.27h-.48s2.89,5.48,2.89,5.48v3.37h1.92v-3.19L52.01,0Z"/>
    <path class="cls-2" d="M30.79,5.44c.96-.43,1.63-1.39,1.63-2.5v-.3C32.42,1.18,31.24,0,29.79,0h-1.79c-1.26,0-2.29,1.02-2.29,2.29v6.57h1.83v-3.19h1.48l1.54,2.43c.34.53.93.84,1.56.81l.84-.05-2.17-3.43ZM27.54,4.22v-1.89c0-.33.27-.6.6-.6h1.25c.69,0,1.24.56,1.24,1.24h0c0,.69-.56,1.24-1.24,1.24h-1.84Z"/>
  </g>
</svg>