<?xml version="1.0" encoding="UTF-8"?>
<svg id="Isolation_Mode" data-name="Isolation Mode" xmlns="http://www.w3.org/2000/svg" viewBox="0 0 42.2 23">
  <defs>
    <style>
      .cls-1 {
        letter-spacing: .1em;
      }

      .cls-2, .cls-3 {
        fill: #fff;
      }

      .cls-3 {
        font-family: Montserrat-Bold, Montserrat;
        font-size: 3.41px;
        font-weight: 700;
      }

      .cls-4 {
        letter-spacing: .12em;
      }

      .cls-5 {
        fill: #010101;
      }

      .cls-6 {
        letter-spacing: .12em;
      }

      .cls-7 {
        letter-spacing: .12em;
      }
    </style>
  </defs>
  <g>
    <g>
      <g>
        <g>
          <path class="cls-2" d="M5.66,12.94c-1.23,0-2.22,1-2.22,2.22s1,2.22,2.22,2.22,2.22-1,2.22-2.22-1-2.22-2.22-2.22ZM5.66,15.73c.25,0,.46-.16.54-.38h.66c-.09.58-.59,1.03-1.2,1.03-.67,0-1.21-.54-1.21-1.21s.54-1.21,1.21-1.21c.61,0,1.11.44,1.2,1.03h-.66c-.08-.22-.29-.38-.54-.38-.31,0-.57.26-.57.57s.26.57.57.57Z"/>
          <path class="cls-2" d="M12.04,18.18h-6.36c-1.66,0-3.01-1.35-3.01-3.01s1.35-3.01,3.01-3.01h6.36c1.66,0,3.01,1.35,3.01,3.01s-1.35,3.01-3.01,3.01ZM5.68,12.52c-1.46,0-2.64,1.19-2.64,2.64s1.19,2.64,2.64,2.64h6.36c1.46,0,2.64-1.19,2.64-2.64s-1.19-2.64-2.64-2.64"/>
        </g>
        <g>
          <path class="cls-5" d="M5.66,12.94c-1.23,0-2.22,1-2.22,2.22s1,2.22,2.22,2.22,2.22-1,2.22-2.22-1-2.22-2.22-2.22ZM5.66,15.73c.25,0,.46-.16.54-.38h.66c-.09.58-.59,1.03-1.2,1.03-.67,0-1.21-.54-1.21-1.21s.54-1.21,1.21-1.21c.61,0,1.11.44,1.2,1.03h-.66c-.08-.22-.29-.38-.54-.38-.31,0-.57.26-.57.57s.26.57.57.57Z"/>
          <path class="cls-5" d="M12.04,18.18h-6.36c-1.66,0-3.01-1.35-3.01-3.01s1.35-3.01,3.01-3.01h6.36c1.66,0,3.01,1.35,3.01,3.01s-1.35,3.01-3.01,3.01ZM5.68,12.52c-1.46,0-2.64,1.19-2.64,2.64s1.19,2.64,2.64,2.64h6.36c1.46,0,2.64-1.19,2.64-2.64s-1.19-2.64-2.64-2.64"/>
        </g>
      </g>
      <g>
        <g>
          <path class="cls-2" d="M5.66,12.94c-1.23,0-2.22,1-2.22,2.22s1,2.22,2.22,2.22,2.22-1,2.22-2.22-1-2.22-2.22-2.22ZM5.66,15.73c.25,0,.46-.16.54-.38h.66c-.09.58-.59,1.03-1.2,1.03-.67,0-1.21-.54-1.21-1.21s.54-1.21,1.21-1.21c.61,0,1.11.44,1.2,1.03h-.66c-.08-.22-.29-.38-.54-.38-.31,0-.57.26-.57.57s.26.57.57.57Z"/>
          <path class="cls-2" d="M12.04,18.18h-6.36c-1.66,0-3.01-1.35-3.01-3.01s1.35-3.01,3.01-3.01h6.36c1.66,0,3.01,1.35,3.01,3.01s-1.35,3.01-3.01,3.01ZM5.68,12.52c-1.46,0-2.64,1.19-2.64,2.64s1.19,2.64,2.64,2.64h6.36c1.46,0,2.64-1.19,2.64-2.64s-1.19-2.64-2.64-2.64"/>
        </g>
        <g>
          <path class="cls-2" d="M5.66,12.94c-1.23,0-2.22,1-2.22,2.22s1,2.22,2.22,2.22,2.22-1,2.22-2.22-1-2.22-2.22-2.22ZM5.66,15.73c.25,0,.46-.16.54-.38h.66c-.09.58-.59,1.03-1.2,1.03-.67,0-1.21-.54-1.21-1.21s.54-1.21,1.21-1.21c.61,0,1.11.44,1.2,1.03h-.66c-.08-.22-.29-.38-.54-.38-.31,0-.57.26-.57.57s.26.57.57.57Z"/>
          <path class="cls-2" d="M12.04,18.18h-6.36c-1.66,0-3.01-1.35-3.01-3.01s1.35-3.01,3.01-3.01h6.36c1.66,0,3.01,1.35,3.01,3.01s-1.35,3.01-3.01,3.01ZM5.68,12.52c-1.46,0-2.64,1.19-2.64,2.64s1.19,2.64,2.64,2.64h6.36c1.46,0,2.64-1.19,2.64-2.64s-1.19-2.64-2.64-2.64"/>
        </g>
        <g>
          <path class="cls-2" d="M5.66,12.94c-1.23,0-2.22,1-2.22,2.22s1,2.22,2.22,2.22,2.22-1,2.22-2.22-1-2.22-2.22-2.22ZM5.66,15.73c.25,0,.46-.16.54-.38h.66c-.09.58-.59,1.03-1.2,1.03-.67,0-1.21-.54-1.21-1.21s.54-1.21,1.21-1.21c.61,0,1.11.44,1.2,1.03h-.66c-.08-.22-.29-.38-.54-.38-.31,0-.57.26-.57.57s.26.57.57.57Z"/>
          <path class="cls-2" d="M12.04,18.18h-6.36c-1.66,0-3.01-1.35-3.01-3.01s1.35-3.01,3.01-3.01h6.36c1.66,0,3.01,1.35,3.01,3.01s-1.35,3.01-3.01,3.01ZM5.68,12.52c-1.46,0-2.64,1.19-2.64,2.64s1.19,2.64,2.64,2.64h6.36c1.46,0,2.64-1.19,2.64-2.64s-1.19-2.64-2.64-2.64"/>
        </g>
      </g>
    </g>
    <text class="cls-3" transform="translate(16.66 16.35)"><tspan class="cls-1" x="0" y="0">C</tspan><tspan class="cls-6" x="2.86" y="0">O</tspan><tspan class="cls-7" x="6.15" y="0">N</tspan><tspan class="cls-1" x="9.3" y="0">V</tspan><tspan class="cls-4" x="12.2" y="0">ERGE</tspan></text>
  </g>
  <g>
    <path class="cls-2" d="M5.07,10.43h-.5c-1.04,0-1.89-.85-1.89-1.89v-3.72h2.52c.87,0,1.57.71,1.57,1.57v.09c0,.43-.17.81-.45,1.1.28.3.45.71.45,1.15,0,.94-.76,1.7-1.7,1.7ZM3.71,5.86v2.68c0,.47.38.86.86.86h.5c.37,0,.66-.3.66-.66s-.3-.67-.67-.67h-.7v-1.04h.83c.3,0,.54-.24.54-.54v-.09c0-.3-.24-.54-.54-.54h-1.48Z"/>
    <path class="cls-2" d="M10.71,4.83v2.42h-1.94v-1.69c0-.41-.33-.73-.73-.73h-.4v5.44h1.13v-2.04h1.94v2.04h1.13v-5.44h-1.13Z"/>
    <path class="cls-2" d="M15.68,4.83h-2.49v5.48h1.13v-1.97h1.84v1.97h1.13v-3.87c0-.89-.72-1.61-1.61-1.61ZM14.32,7.38v-1.57h1.09c.42,0,.75.34.75.75v.81h-1.84Z"/>
    <path class="cls-2" d="M37.91,4.83h-2.49v5.48h1.13v-1.97h1.84v1.97h1.13v-3.87c0-.89-.72-1.61-1.61-1.61ZM36.55,7.38v-1.57h1.09c.42,0,.75.34.75.75v.81h-1.84Z"/>
    <path class="cls-2" d="M27.39,4.83h-4.55c0,.56.46,1.02,1.02,1.02h.86v4.44h1.16v-4.44h1.51v-1.02Z"/>
    <rect class="cls-2" x="28.2" y="4.84" width="1.19" height="5.47"/>
    <path class="cls-2" d="M34.86,4.83h-.31c-.55,0-1.05.31-1.31.79l-.81,1.53-.8-1.53c-.26-.49-.76-.79-1.32-.79h-.3s1.79,3.39,1.79,3.39v2.09h1.19v-1.97l1.86-3.51Z"/>
    <path class="cls-2" d="M21.73,8.19c.59-.26,1.01-.86,1.01-1.55v-.19c0-.9-.73-1.63-1.63-1.63h-1.11c-.78,0-1.41.63-1.41,1.41v4.07h1.13v-1.97h.92l.95,1.5c.21.33.58.52.97.5l.52-.03-1.34-2.12ZM19.72,7.44v-1.17c0-.2.17-.37.37-.37h.77c.42,0,.77.34.77.77h0c0,.42-.34.77-.77.77h-1.14Z"/>
  </g>
</svg>