<?xml version="1.0" encoding="UTF-8"?>
<svg id="Isolation_Mode" data-name="Isolation Mode" xmlns="http://www.w3.org/2000/svg" viewBox="0 0 125.04 37.82">
  <defs>
    <style>
      .cls-1 {
        fill: #fff;
      }

      .cls-2 {
        fill: #e3833e;
      }

      .cls-3 {
        fill: #e2843f;
      }

      .cls-4 {
        fill: #dd7d3c;
      }
    </style>
  </defs>
  <path class="cls-4" d="M111.42,26.4l-1.14-1.19c-.12.08-.22.17-.31.32l1.29,1.33,1.58,1.63-1.18,1.22-1.68,1.74c.11.18.21.24.31.31l1.33-1.38,1.83-1.89-2.02-2.11Z"/>
  <path class="cls-4" d="M114.35,26.72l-1.45-1.51c-.12.08-.23.17-.31.33l1.48,1.53,1.39,1.44-1.14,1.19-1.7,1.81c.09.12.17.2.28.28l1.53-1.59,1.63-1.71-1.71-1.77Z"/>
  <path class="cls-4" d="M117.28,27.03l-1.76-1.82c-.12.08-.23.17-.31.32l1.71,1.77,1.16,1.2-.91.95-1.93,2.05c.08.12.17.2.28.27l1.68-1.74,1.48-1.56-1.4-1.45Z"/>
  <path class="cls-1" d="M87.27,30.05v-1.16s1.8,0,1.8,0v-.38s-1.8,0-1.8,0v-1.1s2.01,0,2.01,0c.04-.15.04-.27,0-.41h-2.48s0,3.49,0,3.49h2.55c.04-.15.04-.27,0-.41h-2.08Z"/>
  <path class="cls-1" d="M91.22,26.76c-.03.17-.02.3,0,.41h1.23s.01,3.07.01,3.07c.2,0,.32.02.47-.03v-3.04s1.17-.02,1.17-.02c.08-.08.09-.32,0-.39h-2.87Z"/>
  <path class="cls-1" d="M105.08,29.83v-3.06c-.19-.03-.3-.03-.47,0v3.47s2.38,0,2.38,0c.05-.12.06-.31-.02-.41h-1.89Z"/>
  <rect class="cls-1" x="101.31" y="26.76" width=".47" height="3.49"/>
  <path class="cls-1" d="M84.36,27.78c-.05-.49-.45-.98-1.01-.99l-1.61-.04v3.47s.47,0,.47,0v-1.09s.95,0,.95,0l.76,1.07c.12.07.39.05.49-.02l-.8-1.17c.58-.18.81-.7.76-1.24ZM83.16,28.71l-.93.02-.02-1.56h.89c.45.02.76.33.78.74.03.41-.24.8-.73.81Z"/>
  <path class="cls-1" d="M74.28,26.77v3.45c.17.05.37.05.46-.04v-1.37s1.74-.02,1.74-.02c.1,0,.12-.37-.03-.37h-1.71s0-1.24,0-1.24h1.99c.02-.15.02-.27,0-.41h-2.45Z"/>
  <path class="cls-1" d="M69.99,26.67c-1.01,0-1.83.82-1.83,1.83s.82,1.83,1.83,1.83,1.83-.82,1.83-1.83-.82-1.83-1.83-1.83ZM69.99,29.88c-.76,0-1.38-.62-1.38-1.38s.62-1.38,1.38-1.38,1.38.62,1.38,1.38-.62,1.38-1.38,1.38Z"/>
  <path class="cls-1" d="M97.14,26.8l-1.57,3.43c.13.02.43.08.49-.04l.39-.82h1.91s.38.84.38.84c.17.05.33.06.53.02l-1.61-3.45c-.17-.03-.4-.05-.52.03ZM96.64,28.96l.76-1.68.78,1.69h-1.54Z"/>
  <polygon class="cls-1" points="58.51 6.27 40.79 6.27 40.79 10.89 46.92 10.89 46.92 22.14 52.37 22.14 52.36 10.89 58.52 10.89 58.51 6.27"/>
  <polygon class="cls-1" points="19.94 6.27 6.36 6.28 6.36 22.14 11.75 22.15 11.76 16.41 19.23 16.41 19.22 13.7 11.77 13.7 11.76 10.89 19.94 10.89 19.94 6.27"/>
  <path class="cls-3" d="M31.83,8.37c-1.12.42-2.38.42-3.5,0-.92-.38-1.52-1.12-1.62-2.12h-5.46c-.02,3.31,2.03,5.62,5.18,6.47,2.31.59,4.68.64,7,.08,3.3-.8,5.48-3.1,5.48-6.55h-5.47c-.09.99-.68,1.74-1.6,2.11Z"/>
  <rect class="cls-2" x="21.26" y="16.08" width="5.39" height="6.29"/>
  <rect class="cls-2" x="33.52" y="16.08" width="5.39" height="6.29"/>
  <path class="cls-1" d="M71.9,14.95c-.03.52-.08.99-.27,1.47-.62,1.58-2.51,1.87-4.14,1.56-1.34-.25-2.2-1.32-2.25-2.71l-.02-9.01h-5.38s0,9.13,0,9.13c.09,2.3.75,4.4,2.71,5.69,2.51,1.65,6.41,1.79,9.32,1.12,1.24-.29,2.36-.78,3.31-1.6,1.4-1.19,2.07-3.25,2.07-5.09V6.27s-5.36,0-5.36,0v8.68Z"/>
  <polygon class="cls-1" points="113.75 17.77 105.05 17.77 105.05 15.34 112.49 15.34 112.49 12.67 105.05 12.67 105.05 10.18 113.38 10.18 113.37 6.03 99.6 6.04 99.61 21.91 113.75 21.91 113.75 17.77"/>
  <path class="cls-1" d="M94.46,15.6c-.85-.24-1.78-.28-1.78-.28v-.28s.68-.08.91-.12c.52-.08,1.02-.28,1.48-.56.7-.43,1.31-1.01,1.62-1.79.47-1.22.46-2.15-.09-3.34-.56-1.24-1.67-2.03-2.94-2.46-1.01-.29-1.98-.47-3.06-.48l-10.56-.02v15.41s5.4,0,5.4,0v-4.65s3.42.01,3.42.01c.8.04,1.94-.12,2.18.99.19.89.11,3.64.11,3.64h5.43s.09-3.12-.17-4.19c-.21-.86-.91-1.58-1.96-1.88ZM91.2,13.33c-.47.32-1.29.39-1.84.41h-3.91s0-3.24,0-3.24l4.43.02c2.24-.02,2.52,2.03,1.31,2.8Z"/>
</svg>