<?xml version="1.0" encoding="UTF-8"?>
<svg id="Layer_1" data-name="Layer 1" xmlns="http://www.w3.org/2000/svg" viewBox="0 0 105.77 105.77">
  <defs>
    <style>
      .cls-1 {
        fill: #fff;
      }
    </style>
  </defs>
  <path class="cls-1" d="M52.89,0C23.68,0,0,23.68,0,52.89s23.68,52.89,52.89,52.89,52.89-23.68,52.89-52.89S82.1,0,52.89,0ZM52.89,66.46c5.93,0,10.92-3.84,12.77-9.15h15.68c-2.13,13.81-14.04,24.39-28.45,24.39-15.92,0-28.82-12.9-28.82-28.82s12.9-28.82,28.82-28.82c14.41,0,26.31,10.58,28.45,24.39h-15.68c-1.85-5.3-6.84-9.15-12.77-9.15-7.48,0-13.57,6.09-13.57,13.57s6.09,13.57,13.57,13.57Z"/>
</svg>