<?xml version="1.0" encoding="UTF-8"?>
<svg id="Layer_1" data-name="Layer 1" xmlns="http://www.w3.org/2000/svg" viewBox="0 0 86.81 50.76">
  <defs>
    <style>
      .cls-1 {
        fill: #881518;
      }
    </style>
  </defs>
  <path class="cls-1" d="M85.66,43h-22.35v-2.31h20.98c-1.89-9.82-8.41-16.82-15.87-16.82-4.52,0-8.73,2.49-11.87,7.01l-1.91-1.32c3.53-5.09,8.56-8.01,13.77-8.01,8.96,0,16.69,8.47,18.39,20.12.04.34-.05.67-.27.93-.22.26-.54.4-.87.4h0Z"/>
  <path class="cls-1" d="M68.41,20.55c-4.97,0-9.02-4.05-9.02-9.02s4.05-9.02,9.02-9.02,9.02,4.04,9.02,9.02-4.04,9.02-9.02,9.02h0ZM68.41,4.82c-3.7,0-6.7,3.01-6.7,6.71s3,6.7,6.7,6.7,6.71-3,6.71-6.7-3.01-6.71-6.71-6.71h0Z"/>
  <path class="cls-1" d="M23.51,43H1.16c-.34,0-.66-.14-.88-.4-.22-.26-.32-.59-.26-.93,1.7-11.65,9.44-20.12,18.38-20.12,5.23,0,10.25,2.91,13.78,8.01l-1.91,1.32c-3.13-4.52-7.35-7.01-11.88-7.01-7.46,0-13.99,7-15.87,16.82h20.99v2.31h0Z"/>
  <path class="cls-1" d="M18.41,20.55c-4.97,0-9.02-4.05-9.02-9.02S13.43,2.51,18.41,2.51s9.02,4.04,9.02,9.02-4.05,9.02-9.02,9.02h0ZM18.41,4.82c-3.7,0-6.7,3.01-6.7,6.71s3,6.7,6.7,6.7,6.71-3,6.71-6.7-3.01-6.71-6.71-6.71h0Z"/>
  <path class="cls-1" d="M65.3,50.76H21.53c-.34,0-.65-.14-.87-.4-.22-.26-.32-.59-.27-.93,1.02-6.97,3.83-13.34,7.92-17.93,4.21-4.72,9.58-7.34,15.11-7.34s10.9,2.61,15.11,7.34c4.09,4.59,6.9,10.97,7.92,17.93.05.34-.05.67-.27.93-.21.26-.53.4-.87.4h0ZM22.89,48.45h41.04c-2.33-12.8-10.81-21.96-20.52-21.96s-18.19,9.16-20.52,21.96h0Z"/>
  <path class="cls-1" d="M43.41,22.28c-6.14,0-11.13-5-11.13-11.13S37.27,0,43.41,0s11.14,5,11.14,11.14-5,11.13-11.14,11.13h0ZM43.41,2.32c-4.86,0-8.82,3.96-8.82,8.82s3.96,8.82,8.82,8.82,8.82-3.96,8.82-8.82-3.96-8.82-8.82-8.82h0Z"/>
  <path class="cls-1" d="M48.27,46.71c-.21,0-.42-.06-.62-.19l-4.25-2.68-4.25,2.68c-.4.26-.92.24-1.3-.04-.39-.28-.56-.77-.44-1.23l1.24-4.86-3.87-3.2c-.36-.31-.51-.8-.36-1.25.15-.45.56-.77,1.02-.79l5.02-.33,1.85-4.67c.18-.44.6-.72,1.08-.72s.9.28,1.07.72l1.85,4.67,5.02.33c.47.03.87.34,1.02.79.15.45,0,.94-.36,1.25l-3.87,3.2,1.24,4.86c.11.46-.06.94-.44,1.23-.2.14-.45.22-.69.22h0ZM38.52,37.27l2.2,1.82c.34.28.49.74.38,1.17l-.71,2.75,2.4-1.52c.38-.25.87-.25,1.24,0l2.4,1.52-.71-2.75c-.11-.43.04-.89.38-1.17l2.19-1.82-2.84-.19c-.44-.03-.83-.31-1-.72l-1.05-2.64-1.04,2.64c-.17.41-.56.7-1.01.72l-2.84.19Z"/>
</svg>