<?xml version="1.0" encoding="UTF-8"?>
<svg id="Layer_1" data-name="Layer 1" xmlns="http://www.w3.org/2000/svg" viewBox="0 0 66.39 49.6">
  <defs>
    <style>
      .cls-1 {
        fill: #89181a;
      }
    </style>
  </defs>
  <path class="cls-1" d="M16.58,49.6H6.68c-.44,0-.79-.36-.79-.8v-20.02H.8c-.32,0-.61-.19-.74-.49-.12-.3-.05-.63.18-.86l10.84-10.84c.31-.31.81-.31,1.12,0l10.84,10.84c.23.22.3.56.17.86-.12.3-.41.49-.73.49h-5.09v20.02c0,.44-.35.8-.79.8h0ZM7.47,48.01h8.32v-20.02c0-.43.36-.79.79-.79h3.97l-8.93-8.92L2.71,27.2h3.97c.43,0,.79.36.79.79v20.02Z"/>
  <path class="cls-1" d="M38.05,49.6h-9.9c-.44,0-.79-.36-.79-.8v-14.68h1.58v13.89h8.32v-13.89h1.58v14.68c0,.44-.35.8-.79.8h0ZM38.84,21.89h-1.58v-10.26c0-.44.36-.8.79-.8h3.97L33.09,1.91l-8.92,8.92h3.97c.43,0,.79.36.79.8v10.26h-1.58v-9.47h-5.09c-.32,0-.61-.19-.74-.49-.12-.3-.05-.64.18-.86L32.54.23c.31-.31.81-.31,1.12,0l10.84,10.83c.22.22.3.57.17.86-.12.3-.41.49-.73.49h-5.09v9.47Z"/>
  <path class="cls-1" d="M33.09,36.67c-2.31,0-4.49-.91-6.13-2.54-1.63-1.63-2.54-3.81-2.54-6.12s.9-4.49,2.54-6.13c3.38-3.38,8.87-3.38,12.25,0,3.38,3.38,3.38,8.88,0,12.26-1.63,1.63-3.81,2.54-6.13,2.54h0ZM33.09,20.93c-1.81,0-3.62.69-5,2.07-1.34,1.33-2.08,3.12-2.08,5.01s.74,3.67,2.08,5c1.33,1.34,3.11,2.07,5,2.07s3.67-.74,5.01-2.07c2.76-2.76,2.76-7.25,0-10.01-1.38-1.38-3.2-2.07-5.01-2.07h0Z"/>
  <path class="cls-1" d="M33.09,32.21c-1.6,0-2.9-1.17-2.9-2.62,0-.43.35-.79.79-.79s.79.36.79.79c0,.56.6,1.03,1.32,1.03s1.32-.46,1.32-1.03c0-.61-.22-.77-1.43-1.03-.94-.21-2.52-.56-2.52-2.37,0-1.32,1.18-2.38,2.63-2.38s2.63,1.06,2.63,2.38c0,.43-.35.79-.79.79s-.79-.36-.79-.79-.48-.8-1.04-.8-1.05.36-1.05.8.12.57,1.28.83c1,.22,2.66.59,2.66,2.58,0,1.44-1.3,2.62-2.9,2.62h0Z"/>
  <path class="cls-1" d="M33.09,25.39c-.43,0-.79-.36-.79-.8v-1.13c0-.43.36-.79.79-.79s.8.36.8.79v1.13c0,.44-.36.8-.8.8h0Z"/>
  <path class="cls-1" d="M33.09,33.34c-.43,0-.79-.36-.79-.8v-1.13c0-.43.36-.79.79-.79s.8.36.8.79v1.13c0,.44-.36.8-.8.8h0Z"/>
  <path class="cls-1" d="M59.72,49.6h-9.9c-.44,0-.8-.36-.8-.8v-20.02h-5.09c-.32,0-.61-.19-.73-.49-.12-.3-.05-.63.17-.86l10.84-10.84c.31-.31.81-.31,1.12,0l10.84,10.84c.23.22.3.56.17.86-.12.3-.41.49-.73.49h-5.09v20.02c0,.44-.35.8-.79.8h0ZM50.61,48.01h8.32v-20.02c0-.43.36-.79.79-.79h3.97l-8.92-8.92-8.92,8.92h3.97c.44,0,.79.36.79.79v20.02h0Z"/>
</svg>