<?xml version="1.0" encoding="UTF-8"?>
<svg id="Layer_1" data-name="Layer 1" xmlns="http://www.w3.org/2000/svg" viewBox="0 0 72.78 56.44">
  <defs>
    <style>
      .cls-1 {
        fill: #881518;
      }
    </style>
  </defs>
  <path class="cls-1" d="M71.62,56.44H6.13c-.4,0-.75-.28-.85-.67-.09-.39.1-.79.46-.97h.02s.36.71.36.71v-.81h3.28l-.73-1.43,15.77-8.16.8,1.54-15.56,8.05h61.07l.28-33.18h1.74s-.3,34.05-.3,34.05c0,.48-.39.86-.86.86h0ZM31.36,43.5l-.79-1.54,8.77-4.54.8,1.54-8.78,4.54Z"/>
  <path class="cls-1" d="M53.3,43.08h-4.11c-1.26,0-2.33-.77-2.73-1.98l-.71-2.19c-1-.32-1.97-.73-2.9-1.21l-2.05,1.05c-1.13.57-2.43.37-3.33-.53l-2.91-2.91c-.89-.9-1.1-2.21-.53-3.33l1.05-2.05c-.48-.93-.88-1.9-1.2-2.9l-.23-.07-1.96-.64c-1.2-.39-1.98-1.46-1.98-2.73v-1.6c0-.48.38-.86.86-.86s.86.38.86.86v1.6c0,.51.3.92.79,1.08l2.62.85c.28.09.49.31.57.59.34,1.18.81,2.32,1.41,3.39.14.25.15.56.01.81l-1.25,2.46c-.23.45-.15.96.21,1.32l2.91,2.91c.36.36.86.44,1.32.21l2.46-1.25c.26-.13.56-.13.81.01,1.07.59,2.21,1.07,3.39,1.41.28.08.5.29.58.56l.85,2.62c.16.48.57.79,1.08.79h4.11c.51,0,.92-.3,1.08-.79l.85-2.62c.09-.27.3-.48.58-.56,1.18-.34,2.32-.82,3.39-1.41.25-.14.55-.14.81-.01l2.46,1.25c.46.23.96.15,1.32-.21l2.91-2.91c.36-.36.44-.86.21-1.32l-1.25-2.46c-.13-.26-.13-.56.01-.81.59-1.07,1.07-2.21,1.41-3.39.08-.28.29-.5.57-.59l2.62-.85c.48-.15.79-.57.79-1.08v-4.11c0-.51-.3-.92-.78-1.08l-2.63-.86c-.27-.09-.49-.31-.57-.58-.34-1.18-.81-2.32-1.41-3.39-.14-.25-.15-.55-.01-.81l1.25-2.46c.23-.46.15-.96-.21-1.32l-2.91-2.91c-.36-.36-.86-.44-1.32-.21l-2.46,1.25c-.26.13-.56.13-.81-.01-1.08-.59-2.22-1.07-3.39-1.41-.28-.08-.5-.29-.58-.56l-.85-2.62c-.16-.48-.57-.79-1.08-.79h-4.11c-.51,0-.92.3-1.08.79l-.85,2.62c-.09.27-.3.48-.58.56-1.18.34-2.32.82-3.39,1.41-.25.14-.55.14-.81.01l-2.46-1.25c-.46-.23-.96-.15-1.31.2l-2.91,2.91c-.36.36-.44.86-.21,1.32l.07.14c.22.43.05.95-.38,1.17-.42.22-.94.05-1.16-.38l-.07-.14c-.57-1.13-.37-2.44.52-3.33l2.91-2.91c.89-.89,2.2-1.1,3.33-.53l2.05,1.05c.93-.48,1.9-.88,2.9-1.2l.71-2.19c.39-1.2,1.47-1.98,2.73-1.98h4.11c1.26,0,2.33.78,2.73,1.98l.71,2.19c.99.32,1.96.72,2.89,1.2l2.05-1.05c1.12-.57,2.46-.35,3.33.53l2.91,2.91c.9.89,1.1,2.2.53,3.33l-1.05,2.05c.49.93.89,1.9,1.21,2.9l2.19.71c1.2.39,1.98,1.46,1.98,2.73v4.11c0,1.27-.78,2.34-1.98,2.73l-2.19.71c-.32,1-.72,1.97-1.2,2.89l1.04,2.06c.57,1.12.37,2.44-.53,3.33l-2.91,2.91c-.88.88-2.22,1.09-3.33.52l-2.05-1.04c-.93.48-1.9.88-2.89,1.2l-.71,2.19c-.39,1.21-1.46,1.98-2.73,1.98h0Z"/>
  <path class="cls-1" d="M6.44,56.44c-.79,0-1.58-.22-2.26-.61-1.73-1-2.94-3.2-1.51-5.68l7.16-12.41v-7.72l-.34.34c-.72.73-1.12,1.69-1.12,2.72,0,.48.09.94.26,1.39.54,1.42.28,2.96-.71,4.11-1.02,1.19-2.6,1.71-4.12,1.37-1.44-.32-2.55-1.29-3.06-2.67-.49-1.35-.74-2.76-.74-4.21,0-3.27,1.27-6.34,3.57-8.64l4.77-4.78c1.33-1.32,2.94-1.99,4.81-1.99h9.08c1.38,0,2.53-.48,3.51-1.45l5.22-5.22c1.88-1.89,4.36-1.38,5.83.09,1.47,1.47,1.97,3.94.09,5.83l-11.37,11.37v6.91c4.1,2.01,6.77,6.17,6.85,10.76.05,2.63-2.03,4.04-4.11,4.08h-.08c-2.06,0-4.13-1.34-4.18-3.94-.03-1.75-1.27-3.26-3-3.68-.28-.07-.57-.1-.85-.1h-3.29l-7,12.12c-.81,1.41-2.12,2.01-3.42,2.01h0ZM10.7,27.06c.11,0,.22.02.34.07.32.13.53.45.53.8v10.05c0,.15-.04.3-.11.44l-7.28,12.61c-.9,1.55-.09,2.75.88,3.31,1.04.59,2.52.61,3.31-.77l7.25-12.54c.15-.26.44-.44.75-.44h3.8c.42,0,.83.05,1.24.15,2.52.6,4.29,2.8,4.34,5.33.03,1.8,1.59,2.25,2.5,2.24.9-.02,2.43-.52,2.4-2.32-.07-4.1-2.56-7.8-6.33-9.44-.32-.14-.52-.45-.52-.79v-7.82c0-.23.09-.45.26-.61l11.62-11.62c1.14-1.14.77-2.52-.09-3.37-.86-.86-2.24-1.23-3.38-.09l-5.22,5.22c-1.3,1.31-2.89,1.97-4.73,1.97h-9.07c-1.42,0-2.59.48-3.59,1.49l-4.77,4.77c-1.97,1.97-3.06,4.61-3.06,7.41,0,1.24.21,2.46.63,3.61.3.83.94,1.39,1.8,1.58.9.2,1.83-.11,2.43-.81.58-.67.73-1.53.41-2.36-.25-.65-.38-1.32-.38-2.01,0-1.5.58-2.9,1.63-3.94l1.82-1.82c.17-.17.38-.26.61-.26h0Z"/>
  <path class="cls-1" d="M17.66,16.93c-3.31,0-6-2.69-6-6s2.69-6.01,6-6.01,6,2.69,6,6.01-2.69,6-6,6h0ZM17.66,6.66c-2.36,0-4.27,1.91-4.27,4.27s1.91,4.27,4.27,4.27,4.27-1.91,4.27-4.27-1.91-4.27-4.27-4.27h0Z"/>
  <path class="cls-1" d="M51.24,33.31c-3.01,0-6.03-1.15-8.32-3.45-2.22-2.22-3.45-5.18-3.45-8.32s1.22-6.09,3.45-8.32h0c2.22-2.23,5.18-3.45,8.32-3.45s6.1,1.23,8.33,3.45c2.22,2.23,3.45,5.18,3.45,8.32s-1.23,6.1-3.45,8.33c-2.29,2.29-5.31,3.43-8.33,3.44h0ZM51.24,11.51c-2.68,0-5.2,1.04-7.1,2.94h0c-1.89,1.89-2.94,4.42-2.94,7.1s1.04,5.2,2.94,7.1c1.96,1.95,4.53,2.93,7.1,2.93s5.14-.98,7.1-2.93c1.89-1.89,2.94-4.42,2.94-7.1s-1.04-5.2-2.94-7.1c-1.9-1.89-4.42-2.94-7.1-2.94h0Z"/>
  <path class="cls-1" d="M51.24,27.14c-2.09,0-3.78-1.52-3.78-3.39,0-.48.38-.86.86-.86s.86.38.86.86c0,.92.92,1.66,2.05,1.66s2.06-.75,2.06-1.66c0-1.09-.55-1.31-2.15-1.66-1.32-.29-3.31-.73-3.31-3.06,0-1.69,1.53-3.06,3.41-3.06s3.41,1.37,3.41,3.06c0,.48-.39.86-.87.86s-.86-.38-.86-.86c0-.72-.77-1.33-1.68-1.33s-1.67.6-1.67,1.33c0,.83.39,1.03,1.95,1.37,1.4.31,3.51.78,3.51,3.35,0,1.88-1.7,3.39-3.79,3.39h0Z"/>
  <path class="cls-1" d="M51.24,17.68c-.48,0-.86-.39-.86-.86v-1.57c0-.48.39-.86.86-.86s.87.39.87.86v1.57c0,.48-.39.86-.87.86h0Z"/>
  <path class="cls-1" d="M51.24,28.7c-.48,0-.86-.38-.86-.86v-1.56c0-.48.39-.86.86-.86s.87.38.87.86v1.56c0,.48-.39.86-.87.86h0Z"/>
</svg>