<?xml version="1.0" encoding="UTF-8"?>
<svg id="Layer_1" data-name="Layer 1" xmlns="http://www.w3.org/2000/svg" viewBox="0 0 64.57 64.63">
  <defs>
    <style>
      .cls-1 {
        fill: #88181a;
      }
    </style>
  </defs>
  <g id="g33ZtR">
    <g>
      <path class="cls-1" d="M64.57,16.9v36.08s-11.63,11.64-11.63,11.64H8.87C4.18,64.51,0,60.83,0,55.99V16.82C0,11.7,4.58,8.1,9.43,8.11h1.59s.01-3.23.01-3.23c.01-2.63,2-4.69,4.53-4.88,2.42-.18,4.84,1.46,5.16,4.08.16,1.32.1,2.65.11,4.03h22.86s.1-3.84.1-3.84C43.87,1.75,46.27.01,48.6,0c2.48,0,4.83,1.87,4.86,4.47l.05,3.62,2.57.06c4.65.11,8.29,3.96,8.49,8.74ZM18.23,14.01V4.73c0-1.29-1.18-2.1-2.29-2.13s-2.3.81-2.3,2.11v9.41c0,1.29,1.21,2.15,2.3,2.14,1.15,0,2.29-.86,2.29-2.25ZM50.89,14.22V4.71c.01-1.36-1.33-2.21-2.48-2.1-1.31.13-2.11,1.12-2.11,2.5v8.61c0,1.36.79,2.4,2.11,2.52,1.03.1,2.48-.65,2.48-2.02ZM53.45,14.47c-.05,2.63-2.49,4.38-4.86,4.37-2.35-.01-4.72-1.76-4.79-4.29l-.1-3.84h-22.85c-.02,1.32,0,2.55-.1,3.84-.22,2.7-2.71,4.48-5.2,4.28-2.66-.21-4.57-2.38-4.54-5.09l.03-3.02-2.19.02c-3.5.04-6.34,2.97-6.31,6.46l.05,4.63h59.39s-.01-4.83-.01-4.83c-.01-3.35-2.77-6.25-6.1-6.26h-2.35s-.07,3.73-.07,3.73ZM51.12,56.29c.19-2.82,2.22-4.9,4.95-5.09h5.92s-.01-26.79-.01-26.79H2.55s.02,31.37.02,31.37c0,3.51,2.9,6.12,6.31,6.27h42.23s0-5.76,0-5.76ZM53.8,60.06l6.32-6.28-3.64-.03c-1.56-.01-2.69,1.2-2.79,2.7l.11,3.61Z"/>
      <path class="cls-1" d="M32.23,57.23l-2,1.06c-.91.48-2,.17-2.69-.49s-.77-1.58-.63-2.64l.24-1.72-1.33-1.24c-.76-.71-1.07-1.68-.76-2.65.29-.9,1.06-1.55,2.13-1.69l1.97-.26,1.04-2.09c.35-.7,1.29-1.16,1.98-1.18.79-.03,1.77.42,2.17,1.19l1.11,2.12,2.09.28c.95.13,1.7.85,1.94,1.65.29.91.02,1.86-.67,2.54l-1.48,1.48.29,1.6c.18,1,.08,1.87-.52,2.53s-1.75,1.1-2.64.65l-2.23-1.12ZM35.06,55.73c-.58-2.9-.4-3.42,1.79-5.28l-2.01-.34c-.57-.1-1.38-.63-1.64-1.15l-.94-1.9c-1.2,2.84-1.61,3.02-4.58,3.4,2.32,1.92,2.33,2.48,1.8,5.29,2.61-1.46,3-1.41,5.59-.02Z"/>
      <path class="cls-1" d="M34.81,41.15l-4.79.03c-2.04.01-3.99-1.54-4-3.69l-.02-5.07c0-2.15,1.74-3.82,3.86-3.82h4.82c2.03,0,3.87,1.52,3.87,3.65v5.26c0,1.92-1.74,3.63-3.72,3.64ZM34.85,38.55c.58-.11,1.12-.65,1.12-1.2v-4.96c0-.63-.62-1.16-1.23-1.23h-4.96c-.63.01-1.18.62-1.23,1.22v4.96c.05.62.6,1.19,1.23,1.19h5.06Z"/>
      <path class="cls-1" d="M17.48,41.17h-4.7c-2.13,0-3.94-1.67-3.93-3.84l.03-5.13c.01-2.13,1.89-3.62,3.89-3.62h4.86c2.03.01,3.78,1.69,3.78,3.8v4.94c0,2.17-1.84,3.84-3.93,3.83ZM17.82,38.54c.63-.2,1.03-.83,1.02-1.44l-.02-4.66c0-.84-.76-1.28-1.52-1.28h-4.57c-.66.01-1.23.56-1.31,1.22v4.98c.09.68.64,1.19,1.3,1.19h5.09Z"/>
      <path class="cls-1" d="M52.18,41.11l-5.29.05c-2.19.02-3.79-1.88-3.79-4.02v-4.56c0-1.91,1.41-3.91,3.44-3.93l5.4-.04c1.93-.01,3.72,1.59,3.72,3.59v5.34c0,1.82-1.6,3.55-3.48,3.56ZM51.9,38.55c.76,0,1.2-.76,1.2-1.39v-4.56c0-.78-.53-1.42-1.32-1.42h-4.54c-.91-.01-1.56.52-1.55,1.46v4.66c.01.53.58,1.25,1.12,1.25h5.09Z"/>
      <path class="cls-1" d="M17.37,58.2l-4.6-.02c-2,0-3.88-1.49-3.89-3.62l-.03-5.14c-.01-2.05,1.71-3.78,3.75-3.79l4.87-.02c2.27,0,3.96,1.77,3.96,4.02v4.52c0,2.3-1.71,4.05-4.06,4.04ZM17.84,55.59c.46-.16,1-.76,1-1.22l-.02-4.85c0-.87-.74-1.33-1.52-1.33h-4.58c-.6.01-1.29.57-1.29,1.22v4.98c0,.67.69,1.19,1.29,1.19h5.11Z"/>
    </g>
  </g>
</svg>